<svg xmlns="http://www.w3.org/2000/svg" viewBox="44 39 160 160" fill="none">
  <!-- Sombra base para dar volumen sutil -->
  <path d="M80 50 L176 50 C184.837 50 192 57.1634 192 66 L192 196 L176 186 L160 196 L144 186 L128 196 L112 186 L96 196 L80 186 L64 196 L64 66 C64 57.1634 71.1634 50 80 50Z" fill="#E2E8F0" />
  
  <!-- Cuerpo del ticket/recibo (Color ligeramente blanco/gris para dar contraste) -->
  <path d="M76 46 L172 46 C180.837 46 188 53.1634 188 62 L188 192 L172 182 L156 192 L140 182 L124 192 L108 182 L92 192 L76 182 L60 192 L60 62 C60 53.1634 67.1634 46 76 46Z" fill="#F8FAFC" stroke="#0F172A" stroke-width="8" stroke-linejoin="round" />

  <!-- Líneas de datos/texto en el recibo -->
  <line x1="88" y1="80" x2="136" y2="80" stroke="#0F172A" stroke-width="8" stroke-linecap="round" />
  <line x1="88" y1="104" x2="160" y2="104" stroke="#94A3B8" stroke-width="8" stroke-linecap="round" />
  <line x1="88" y1="128" x2="120" y2="128" stroke="#94A3B8" stroke-width="8" stroke-linecap="round" />

  <!-- Carita de Mascota Kawaii / Minimalista -->
  <!-- Ojos -->
  <circle cx="104" cy="164" r="8" fill="#0F172A" /> 
  <circle cx="144" cy="164" r="8" fill="#0F172A" />
  
  <!-- Mejillas sonrosadas -->
  <ellipse cx="86" cy="170" rx="8" ry="5" fill="#F472B6" opacity="0.8" />
  <ellipse cx="162" cy="170" rx="8" ry="5" fill="#F472B6" opacity="0.8" />

  <!-- Boca sonriente pequeña -->
  <path d="M118 168 Q124 176 130 168" stroke="#0F172A" stroke-width="6" stroke-linecap="round" fill="none" />
</svg>